<?xml version="1.0" encoding="UTF-8" standalone="no"?>
<!-- Created with Inkscape (http://www.inkscape.org/) -->

<svg
   xmlns:dc="http://purl.org/dc/elements/1.1/"
   xmlns:cc="http://creativecommons.org/ns#"
   xmlns:rdf="http://www.w3.org/1999/02/22-rdf-syntax-ns#"
   xmlns:svg="http://www.w3.org/2000/svg"
   xmlns="http://www.w3.org/2000/svg"
   xmlns:sodipodi="http://sodipodi.sourceforge.net/DTD/sodipodi-0.dtd"
   xmlns:inkscape="http://www.inkscape.org/namespaces/inkscape"
   width="210mm"
   height="297mm"
   viewBox="0 0 210 297"
   version="1.1"
   id="svg8"
   inkscape:version="0.92.5 (2060ec1f9f, 2020-04-08)"
   sodipodi:docname="UI-Set.svg">
  <defs
     id="defs2" />
  <sodipodi:namedview
     id="base"
     pagecolor="#ffffff"
     bordercolor="#666666"
     borderopacity="1.0"
     inkscape:pageopacity="0.0"
     inkscape:pageshadow="2"
     inkscape:zoom="0.7"
     inkscape:cx="448.85377"
     inkscape:cy="657.44448"
     inkscape:document-units="mm"
     inkscape:current-layer="g833"
     showgrid="false"
     borderlayer="true"
     inkscape:showpageshadow="false"
     showguides="true"
     inkscape:guide-bbox="true"
     inkscape:window-width="1858"
     inkscape:window-height="1057"
     inkscape:window-x="1912"
     inkscape:window-y="-8"
     inkscape:window-maximized="1" />
  <metadata
     id="metadata5">
    <rdf:RDF>
      <cc:Work
         rdf:about="">
        <dc:format>image/svg+xml</dc:format>
        <dc:type
           rdf:resource="http://purl.org/dc/dcmitype/StillImage" />
        <dc:title></dc:title>
      </cc:Work>
    </rdf:RDF>
  </metadata>
  <g
     inkscape:label="Ebene 1"
     inkscape:groupmode="layer"
     id="layer1">
    <g
       id="g833"
       style="fill:#f8f8f8;fill-opacity:1;stroke:none">
      <g
         id="g843"
         transform="matrix(0.70319463,0,0,0.70319463,-45.870239,-42.899081)"
         inkscape:export-xdpi="145.72972"
         inkscape:export-ydpi="145.72972">
        <path
           inkscape:export-ydpi="102.47636"
           inkscape:export-xdpi="102.47636"
           sodipodi:nodetypes="ccccc"
           inkscape:connector-curvature="0"
           id="path829"
           d="m 135.58589,68.135371 c -12.42778,12.706673 -45.32477,31.106111 -45.32477,31.106111 0,0 31.20969,21.461768 45.32477,32.239968 0,-32.239965 -8.94406,-25.73741 -17.12565,-32.239968 8.18159,-5.857716 17.12565,2e-6 17.12565,-31.106111 z"
           style="fill:#a0a0a0;fill-opacity:1;stroke:none;stroke-width:0.23800889px;stroke-linecap:butt;stroke-linejoin:miter;stroke-opacity:1" />
        <path
           inkscape:export-ydpi="102.47636"
           inkscape:export-xdpi="102.47636"
           style="fill:#f8f8f8;fill-opacity:1;stroke:none;stroke-width:0.29082546px;stroke-linecap:butt;stroke-linejoin:miter;stroke-opacity:1"
           d="m 135.58588,68.135369 c -21.15082,10.36873 -42.301835,20.737388 -63.452673,31.106118 21.074724,10.778203 42.377953,21.461763 63.452673,32.239963 0,-32.239968 -29.68411,-25.73741 -41.899719,-32.239968 12.215609,-5.857716 41.899719,0 41.899719,-31.106113 z"
           id="path815"
           inkscape:connector-curvature="0"
           sodipodi:nodetypes="ccccc" />
      </g>
      <g
         transform="matrix(-0.70319463,0,0,0.70319463,152.29172,-42.899081)"
         id="g849"
         inkscape:export-xdpi="145.72972"
         inkscape:export-ydpi="145.72972">
        <path
           style="fill:#a0a0a0;fill-opacity:1;stroke:none;stroke-width:0.23800889px;stroke-linecap:butt;stroke-linejoin:miter;stroke-opacity:1"
           d="m 135.58589,68.135371 c -12.42778,12.706673 -45.32477,31.106111 -45.32477,31.106111 0,0 31.20969,21.461768 45.32477,32.239968 0,-32.239965 -8.94406,-25.73741 -17.12565,-32.239968 8.18159,-5.857716 17.12565,2e-6 17.12565,-31.106111 z"
           id="path845"
           inkscape:connector-curvature="0"
           sodipodi:nodetypes="ccccc"
           inkscape:export-xdpi="102.47636"
           inkscape:export-ydpi="102.47636" />
        <path
           sodipodi:nodetypes="ccccc"
           inkscape:connector-curvature="0"
           id="path847"
           d="m 135.58588,68.135369 c -21.15082,10.36873 -42.301835,20.737388 -63.452673,31.106118 21.074724,10.778203 42.377953,21.461763 63.452673,32.239963 0,-32.239968 -29.68411,-25.73741 -41.899719,-32.239968 12.215609,-5.857716 41.899719,0 41.899719,-31.106113 z"
           style="fill:#f8f8f8;fill-opacity:1;stroke:none;stroke-width:0.29082546px;stroke-linecap:butt;stroke-linejoin:miter;stroke-opacity:1"
           inkscape:export-xdpi="102.47636"
           inkscape:export-ydpi="102.47636" />
      </g>
      <g
         inkscape:export-ydpi="145.97495"
         inkscape:export-xdpi="145.97495"
         id="g855"
         transform="matrix(0,0.70319463,0.70319463,0,55.564582,-46.125796)">
        <path
           inkscape:export-ydpi="102.47636"
           inkscape:export-xdpi="102.47636"
           sodipodi:nodetypes="ccccc"
           inkscape:connector-curvature="0"
           id="path851"
           d="m 135.58589,68.135371 c -12.42778,12.706673 -45.32477,31.106111 -45.32477,31.106111 0,0 31.20969,21.461768 45.32477,32.239968 0,-32.239965 -8.94406,-25.73741 -17.12565,-32.239968 8.18159,-5.857716 17.12565,2e-6 17.12565,-31.106111 z"
           style="fill:#a0a0a0;fill-opacity:1;stroke:none;stroke-width:0.23800889px;stroke-linecap:butt;stroke-linejoin:miter;stroke-opacity:1" />
        <path
           inkscape:export-ydpi="102.47636"
           inkscape:export-xdpi="102.47636"
           style="fill:#f8f8f8;fill-opacity:1;stroke:none;stroke-width:0.29082546px;stroke-linecap:butt;stroke-linejoin:miter;stroke-opacity:1"
           d="m 135.58588,68.135369 c -21.15082,10.36873 -42.301835,20.737388 -63.452673,31.106118 21.074724,10.778203 42.377953,21.461763 63.452673,32.239963 0,-32.239968 -29.68411,-25.73741 -41.899719,-32.239968 12.215609,-5.857716 41.899719,0 41.899719,-31.106113 z"
           id="path853"
           inkscape:connector-curvature="0"
           sodipodi:nodetypes="ccccc" />
      </g>
      <g
         transform="matrix(0,-0.70319463,0.70319463,0,111.12708,99.941158)"
         id="g861"
         inkscape:export-xdpi="145.97495"
         inkscape:export-ydpi="145.97495">
        <path
           style="fill:#a0a0a0;fill-opacity:1;stroke:none;stroke-width:0.23800889px;stroke-linecap:butt;stroke-linejoin:miter;stroke-opacity:1"
           d="m 135.58589,68.135371 c -12.42778,12.706673 -45.32477,31.106111 -45.32477,31.106111 0,0 31.20969,21.461768 45.32477,32.239968 0,-32.239965 -8.94406,-25.73741 -17.12565,-32.239968 8.18159,-5.857716 17.12565,2e-6 17.12565,-31.106111 z"
           id="path857"
           inkscape:connector-curvature="0"
           sodipodi:nodetypes="ccccc"
           inkscape:export-xdpi="102.47636"
           inkscape:export-ydpi="102.47636" />
        <path
           sodipodi:nodetypes="ccccc"
           inkscape:connector-curvature="0"
           id="path859"
           d="m 135.58588,68.135369 c -21.15082,10.36873 -42.301835,20.737388 -63.452673,31.106118 21.074724,10.778203 42.377953,21.461763 63.452673,32.239963 0,-32.239968 -29.68411,-25.73741 -41.899719,-32.239968 12.215609,-5.857716 41.899719,0 41.899719,-31.106113 z"
           style="fill:#f8f8f8;fill-opacity:1;stroke:none;stroke-width:0.29082546px;stroke-linecap:butt;stroke-linejoin:miter;stroke-opacity:1"
           inkscape:export-xdpi="102.47636"
           inkscape:export-ydpi="102.47636" />
      </g>
    </g>
  </g>
</svg>
